<?xml version="1.0" encoding="UTF-8"?>
<svg version="1.1" viewBox="0 0 2048 1637" width="1280" height="1280" xmlns="http://www.w3.org/2000/svg">
<path transform="translate(1017,504)" d="m0 0h15l16 3 16 6 13 7 14 8 26 15 24 14 21 12 26 15 15 9 25 14 24 14 18 11 13 11 11 14 8 16 4 12 2 12v241l-2 13-4 13-7 14-8 11-12 12-15 10-23 13-15 9-25 14-15 9-21 12-23 13-22 13-25 14-15 9-16 8-15 5-10 2h-22l-16-3-17-7-19-11-21-12-48-28-28-16-17-10-21-12-26-15-20-12-10-8-10-10-10-15-6-14-4-17-1-10v-229l2-14 4-14 8-16 7-10 8-9 10-8 20-12 24-14 23-13 22-13 23-13 19-11 17-10 21-12 26-15 15-8 12-4z" fill="#FC0172"/>
<path transform="translate(921,677)" d="m0 0h204l11 1 12 5 6 4 7 6 6 9 4 8 2 9v69l-6 12-5 5-8 5-18 6-1 2 23 10 9 8 5 9 1 3v70l-4 12-5 9-9 10-10 6-11 4-21 1h-189l-14-2-14-7-10-9-6-9-4-11-1-5-1-48v-133l1-17 4-13 6-10 9-9 10-6 9-3z" fill="#FEFEFE"/>
<path transform="translate(1093,535)" d="m0 0 4 1 8 3 3-1 28 16 24 14 23 13 20 12 25 14 24 14 18 11 13 11 11 14 8 16 4 12 2 12v241l-2 13-4 13-7 14-8 11-12 12-15 10-23 13-15 9-25 14-15 9-21 12-23 13-22 13-14 8-6 1-4 3-2-1 7-6 7-4h5v-2l4-2v-2l3-2h4v-2l5-4 4-2 3-5 3-7 6-3 1-3-5-1-1 2-2-4-2-5v-6l-4-2v-4l3-3 1-15 1-4 1-7 2-11 2-14-5-5-1-2h4l-1-5-3-1 1-10-6-1v-2l7-2 3-2 12-5 8-6 7-8 6-13 2-7v-70l-4-9-7-8-14-7-12-5v-3l8-3 15-6 5-4h2l2-5 5-10v-69l-3-12-6-10-2-4-4-2-7-6-8-4-6-2-11-1v-1l-10-1-72-1v-1l23-1v-2h7l15-3 35-3 4-3h2l1-2 5-2v-2l-2-5-5-1v-8l-6-5-1-5v-3l-2-2-1-12 2-1v-13l-3-8 1-8-1-3v-10l1-8 1-5h-2v-2l-4-1-1-3-3-1-5-6-7-4-2-3h-2z" fill="#F1019F"/>
<path transform="translate(896,582)" d="m0 0h3l2 8-2 8h-3l1 7-1 9-1 14 1 7 3 10-4 2 2 4v4h2v4l3 1-2 6-1 2 2 1-4 1-5 2-5 6-1 3-6 4-5 8-1 9 1 2-1 4h-2v10l-1 7-1 33 1 156 2 13 3 8 1 4 7 13 2 4 4 2 3 3 1 4 1 5 15 8 2 5-3 3-7 2h-4l-3 15-1 3 1 6 3 3 1 8h2l1 9 2 9 3 8 2 4-4 1-4-2-6 2-23-1-5 2-19-11-8-3-21-12-26-15-17-11-10-9-9-10-9-15-5-14-3-13-1-10v-229l2-14 4-14 8-16 7-10 8-9 10-8 20-12 24-14 18-10 5-1h6l10-5 8-2z" fill="#FE0823"/>
<path transform="translate(1008,509)" d="m0 0h9l2 3 2-1v3l-4 1-3-2v2l-4 1 6 3 2 4-6-1-1 2 2 1h-3l-1 6-5 7-4 7v5l-2 2-1 6-1 7-2 7 1 1v6l-2 1v4h2l-1 15 2 1 2 13-1 2 4 8v3h9l2 8v7l-5 5-3-1v3h-2l2 4-3 2h-3l1 4-3 1v2h-2v2l-9 4-9 2-20 2-10 3-29 2-14 4-11 7-9 9-7 13-3 13-1 18v134l1 42 4 15 6 10 8 8 13 8 16 4 38 1 9 1 1 2 6 2-1 4 11 2 2-1 9 2 18 2 8 2 1 4-2 7-4 2 2 15-1 5-1 11-3 3h-2v2h-2l1 3h-2v2h-3v2h-2v7l-2 6-1 11 2 1-1 11-2 2 2 3 2 4-1 5 1 2h-2l2 6 1 4-1 4 2 4-1 2h-3l-1 4-13 1-13-3-7-3-4-1 1 3-9-3-5-2h-2l-2-3-7-2-1-3h-3l-1-2-11-3-26-15-24-14-28-16 3-1 14 8 6 3 4-2h9l14 1 8-2 4 2h2l-4-5-4-16v-9h-2l-1-5h-2l-3-12 4-18 4-2 2 1 7-3v-4l-1-2-14-7-2-4v-2l-1-4v-2l-5-1-7-11-5-10-2-9-1-1-2-16-1-164 1-22 2-17h2v-5l-1-5 3-9 5-6 5-2 1-4 6-7 7-1-1-5 2-4-2-1v-4h-2l-2-8 3-3-4-11v-11l1-9 1-15h3l1-10-1-6-24 6-8 1-6 2-10 5h-10l5-4 28-16 23-13 17-10 24-14 25-14 15-9 13-6h4v2h7z" fill="#F90249"/>
<path transform="translate(1093,535)" d="m0 0 4 1 8 3 3-1 28 16 24 14 23 13 20 12 25 14 24 14 9 6-2 2-4-1-2-1-1 7v3l-6-2-1-2-4-2-3-2-4-2-2-2-6-3v-2l-3 1-6-3-4-1v-3l-5-1-1-2-3-1 1 5h3l2 4-2 5-2 4h-4l-1 7v10l-4 1v9l-2-2-3 11h-2l3 3 5-3 2 10-2 1v6l4 5 1 3h-2l-1 8 1 5v14l1 16 1 3 5 2 1 6-1 4-1-3h-5l4 5-1 2h4 1v10l-1 6 2 7v11l1 6v10l1 5-2 5v12l-1 11 1 13 1 9-2 7v7h-2v13l2 19v10l3 5-2 13-5 5 1 3-1 2 2 1-3 5-2 3 1 4-3 5-2 2v7l-3 4v8l3 7 1 13-3 5 7-3h3v3l-1 6 4-1 2 6h4l2 8-1 1h7l2-4 7-3 5-3 4-1 1-3 10-4 3-2-2 4-6 5-2 2-3 1-2 3v3l-14 8-23 13-22 13-21 12-23 13-22 13-14 8-6 1-4 3-2-1 7-6 7-4h5v-2l4-2v-2l3-2h4v-2l5-4 4-2 3-5 3-7 6-3 1-3-5-1-1 2-2-4-2-5v-6l-4-2v-4l3-3 1-15 1-4 1-7 2-11 2-14-5-5-1-2h4l-1-5-3-1 1-10-6-1v-2l7-2 3-2 12-5 8-6 7-8 6-13 2-7v-70l-4-9-7-8-14-7-12-5v-3l8-3 15-6 5-4h2l2-5 5-10v-69l-3-12-6-10-2-4-4-2-7-6-8-4-6-2-11-1v-1l-10-1-72-1v-1l23-1v-2h7l15-3 35-3 4-3h2l1-2 5-2v-2l-2-5-5-1v-8l-6-5-1-5v-3l-2-2-1-12 2-1v-13l-3-8 1-8-1-3v-10l1-8 1-5h-2v-2l-4-1-1-3-3-1-5-6-7-4-2-3h-2z" fill="#FC0189"/>
<path transform="translate(958,962)" d="m0 0h25l59 1 2 1 19 1 7 2 5 5v2l-19 1 4 3 7 1-1 3 4 4 2 12 1 3-2 6h-2l-3-5-2 10v11l-5 10-2 12 2 1-1 8-2 7 3 2v6l-3 6v5l2 1v5l4 8 3 1 10-7 2-1 1-3 9-2h3l2 6 3 3-3 8-2 3h-2l-1 3-9 6-2 4-4 1-1 2-6 3-3 3-14 5-13 3h-22l-16-3-17-7-19-11-21-12-13-8 2-1 6 2v2h3l3 3 6 2 1 3 3-1 5 3 7 2v-2l8 1 7 3 10 2 12-1 1-3h3l-1-5-1-3 1-5-2-4 1-4v-3-5l-3-1-1-5 2-2 1-10h-2l1-15h2l1-10h2v-2h3l1-5h2v-2l4-3 1-15 1-2-1-7v-7l4-3 1-10-21-2-12-2-3-1-2 1-10-3-1-3 1-1-6-2v-2h-9z" fill="#FE015E"/>
<path transform="translate(1017,504)" d="m0 0h15l16 3 16 6 13 7 8 5 1 3 3 3-4 1-2 2 1 3 2 2 2 4-1 4h-2l3 6-4 2-12 2-2 1-2-4-4 1-3 3-8-2-1 5-2 5 1 4v15l-2 1-1 3h2l-1 3 1 4-1 2 4 2-3 4h2l2 5v3l-3 2 2 3 1 8 2 7h2l2-2 1 5v3 3h2v3l3 3-3 1v5l-2 1 4 1 8 1h11l1 5-7 3-6 2-15 3-21 3-9 2v1h-92v-1l13-1 8-3 20-2 12-3 3-2h3v-2h2v-2l2-1v-4l5-3-1-3h2v-3l5-1 2-3v-7l-1-8-7 1-2-1-5-11 1-3-1-9v-3l-3-1v-7l2-8h-2l-1-4 3-1v-6l-2-1 1-7h2v-7l2-7 1-4v-3h2l2-6 6-9 3-8 6 2-3-4-6-3 4-3h3l5 1-1-2h-3v-2h-9l-7 3-6-1v-2l-2-1 17-4z" fill="#FE015E"/>
<path transform="translate(968,857)" d="m0 0h91l11 1 5 3 3 5 1 10-1 13-5 5-8 3h-105l-2-1v-38z" fill="#FE015D"/>
<path transform="translate(959,740)" d="m0 0h108l7 3 4 5 1 5v10l-1 7-4 5-8 3h-107l-1-1v-36z" fill="#FE015D"/>
<path transform="translate(968,857)" d="m0 0h91l11 1 5 3 3 5 1 10-1 13-5 5-8 3h-105l-2-1v-38zm-7 3-1 1v33l35 1 42-1 13-1 15-6 6-1 1-5v-6l-1-5-3-9-1-1z" fill="#FC0178"/>
<path transform="translate(959,740)" d="m0 0h108l7 3 4 5 1 5v10l-1 7-4 5-8 3h-107l-1-1v-36zm2 2-1 2-1 9v18l1 5h52l25-1 17-3 10-5 7-1-1-15-2-6h-2l-1-2h-7l-4-1z" fill="#FC017B"/>
<path transform="translate(961,743)" d="m0 0h9l-2 6v4l1-5 6-2 1-1h14v3l2 1 1 2h4l-2 1v2h2l-1 4h2l1-3 4 4-7 1-1 2-7 4-12-1-7-3-4 4-5 1v-23z" fill="#F90149"/>
<path transform="translate(872,722)" d="m0 0h2v195l-2-1-1-42v-135z" fill="#FD016B"/>
<path transform="translate(979,863)" d="m0 0 4 1v1h2v2h6l1 6 1 3-1 3-7 4-9 1-5-5-1-4 1-5v-1l4-1 1-3z" fill="#F90149"/>
<path transform="translate(958,741)" d="m0 0h96v1l-14 1h-29l-50-1-1 11v23l14-1h38l27-1v2l3 1h-84z" fill="#FC0172"/>
<path transform="translate(958,1108)" d="m0 0 7 2 9 6 7 3 9 4 8 3 20 4 17-1 16-3 4 1-14 4-6 1h-22l-16-3-17-7-19-11z" fill="#FC0879"/>
<path transform="translate(1174,850)" d="m0 0h1l1 8v56l-5 17-6 10-2 1 1-4 6-13 3-8z" fill="#FC0172"/>
<path transform="translate(912,676)" d="m0 0h10l-1 2-12 2-12 6-10 9-6 9-4 11-1 4-1 17-2 1v-21l4-11 6-10 10-10 10-6z" fill="#FC0176"/>
<path transform="translate(1017,504)" d="m0 0h15l16 3 9 3-8 2-1-2-4-1-9-1-34 1v2l-6 1v-2l-2-1 17-4z" fill="#FC0D7C"/>
<path transform="translate(1037,893)" d="m0 0h8v2l4 1h-64l1-2z" fill="#FC0172"/>
<path transform="translate(962,861)" d="m0 0 3 1 1 10v9l-5 4h-1v-16z" fill="#F90249"/>
<path transform="translate(958,1108)" d="m0 0 7 2 9 6 7 3 9 4 5 2v3l-15-6-19-11z" fill="#FC0C7B"/>
<path transform="translate(1111,1092)" d="m0 0 3 1-5 5-8 4-6 2-5 2 5-6 8-4 4-1h2v-2z" fill="#FC0185"/>
<path transform="translate(1017,504)" d="m0 0 2 1v3l-18 1v2l-6 1v-2l-2-1 17-4z" fill="#FC1880"/>
<path transform="translate(1072,860)" d="m0 0 3 1 3 5 1 10-2 6h-1l-1-11-3-8z" fill="#FC0180"/>
<path transform="translate(991,510)" d="m0 0h2v2l-6 2-5 6-1-2-4 2v2l-3 1v-2l-3-1 17-9z" fill="#FD2281"/>
<path transform="translate(927,1090)" d="m0 0 7 1 1 3h3l3 3 6 2 1 3 5 2-1 2-17-10-8-5z" fill="#FD0E76"/>
<path transform="translate(1160,943)" d="m0 0 2 1-4 5-10 7-9 3h-2v-2l12-5 8-6z" fill="#FC017C"/>
<path transform="translate(892,948)" d="m0 0 11 6 12 5-1 2-12-4-9-6z" fill="#FC0176"/>
<path transform="translate(878,933)" d="m0 0h3l7 10 4 4-1 3-9-9-4-6z" fill="#FD0172"/>
<path transform="translate(1172,918)" d="m0 0h1v7l-4 10-5 7-1-3 7-14z" fill="#FC017B"/>
<path transform="translate(875,709)" d="m0 0h2l-1 10-1 17-2 1v-21z" fill="#FC017D"/>
<path transform="translate(996,1126)" d="m0 0 17 3 2 2h-9l-9-2z" fill="#FC0C7B"/>
<path transform="translate(874,576)" d="m0 0 2 1-3 4-5 2-7 3-3-1z" fill="#FD2484"/>
<path transform="translate(834,599)" d="m0 0h2l-1 3-5 3-1 2-4-1v2l-7 1 4-3z" fill="#FC2784"/>
<path transform="translate(943,536)" d="m0 0h2v2l-6 2v2l-3 1-1 2-4 2h-5l5-4z" fill="#FC2084"/>
<path transform="translate(1036,505)" d="m0 0 12 2 9 3-8 2-1-2-4-1-6-1v-2z" fill="#FC2087"/>
<path transform="translate(959,527)" d="m0 0 2 1-3 2-1 3-6 1-1 3-5-1 5-4z" fill="#FD2F8A"/>
<path transform="translate(1204,727)" d="m0 0h5v6l-3 1-3-1v-5z" fill="#FD018A"/>
<path transform="translate(893,565)" d="m0 0 2 1-4 4-7 3-6 3 1-3z" fill="#FC1881"/>
<path transform="translate(983,1121)" d="m0 0 11 3 2 4-11-4-2-1z" fill="#FC0176"/>
<path transform="translate(917,551)" d="m0 0 2 1-1 3-6 2-4 2-3-1z" fill="#FC1D82"/>
<path transform="translate(1137,816)" d="m0 0 4 3 9 4-3 1-10-4z" fill="#FC0179"/>
<path transform="translate(851,589)" d="m0 0h2v2l-6 5h-6l5-4z" fill="#FC2881"/>
</svg>
